<?xml version="1.0"?>
<svg xmlns="http://www.w3.org/2000/svg" xmlns:xlink="http://www.w3.org/1999/xlink" xmlns:svgjs="http://svgjs.com/svgjs" version="1.1" width="512" height="512" x="0" y="0" viewBox="0 0 512 512" style="enable-background:new 0 0 512 512" xml:space="preserve"><g><g xmlns="http://www.w3.org/2000/svg"><path d="m444.77 211.77h-114.54v21.23c0 21.43-6.96 41.26-18.76 57.35l19.7 19.46c4.85-2.87 10.13-5.1 15.72-6.53v-16.53c0-8.29 6.72-15 15-15s15 6.71 15 15v16.53c5.59 1.43 10.87 3.66 15.71 6.53l11.71-11.74c5.85-5.86 15.35-5.87 21.21-.02 5.87 5.85 5.88 15.34.03 21.21l-11.69 11.72c2.92 4.9 5.18 10.24 6.63 15.9h16.54c8.28 0 15 6.72 15 15 0 8.29-6.72 15-15 15h-16.54c-1.45 5.67-3.71 11.01-6.63 15.91l11.69 11.72c5.85 5.87 5.84 15.36-.03 21.21-5.843 5.843-15.366 5.845-21.21-.02l-11.71-11.74c-4.84 2.87-10.12 5.1-15.71 6.53v16.53c0 8.29-6.72 15-15 15s-15-6.71-15-15v-16.53c-5.59-1.43-10.87-3.66-15.71-6.53l-11.71 11.74c-5.903 5.903-15.406 5.824-21.21.02-5.87-5.85-5.88-15.34-.03-21.21l11.69-11.72c-2.92-4.9-5.18-10.24-6.63-15.91h-16.54c-8.28 0-15-6.71-15-15 0-8.28 6.72-15 15-15h16.54c1.45-5.66 3.71-11 6.63-15.9l-19.39-19.65c-16.12 11.88-36.02 18.9-57.53 18.9h-21.22v114.53c0 37.07 30.15 67.24 67.23 67.24h165.76c37.07 0 67.23-30.17 67.23-67.24v-165.76c0-37.07-30.16-67.23-67.23-67.23z" fill="#2799f0" data-original="#000000"/><path d="m151.95 210.12c17.72 0 34.01-7.44 45.43-19.81-47.24-2.17-85.29-40.21-87.46-87.45-12.37 11.42-19.8 27.7-19.8 45.42 0 34.1 27.74 61.84 61.83 61.84z" fill="#2799f0" data-original="#000000"/><path d="m233 300.23c37.08 0 67.23-30.16 67.23-67.23v-165.76c0-37.07-30.15-67.24-67.23-67.24h-165.76c-37.07 0-67.24 30.17-67.24 67.24v165.76c0 37.07 30.17 67.23 67.24 67.23zm-109.09-239.4c5.35-1.71 11.22-.29 15.19 3.69s5.39 9.85 3.66 15.2c-1.95 6.05-2.94 12.39-2.94 18.86 0 34.1 27.74 61.83 61.83 61.83 6.47 0 12.82-.99 18.86-2.94 5.36-1.72 11.22-.31 15.2 3.66s5.41 9.83 3.69 15.19c-12.2 38.16-47.35 63.8-87.45 63.8-50.64 0-91.83-41.2-91.83-91.84 0-40.09 25.63-75.24 63.79-87.45z" fill="#2799f0" data-original="#000000"/><path d="m166.783 436.156h-70.938v-54.728l10.932 10.932c5.858 5.858 15.353 5.857 21.21 0 5.857-5.856 5.857-15.353 0-21.209l-36.534-36.534c-5.947-5.947-15.484-5.73-21.21 0l-36.531 36.53c-.367.367-.711.749-1.032 1.143-4.805 5.89-4.462 14.58 1.029 20.071 5.858 5.858 15.353 5.857 21.21 0l10.932-10.932v69.725c0 8.283 6.715 14.998 14.998 14.998h85.936c8.283 0 14.998-6.715 14.998-14.998s-6.717-14.998-15-14.998z" fill="#2799f0" data-original="#000000"/><path d="m344.996 75.913h70.939v54.729l-10.932-10.932c-5.857-5.856-15.353-5.856-21.21 0-5.857 5.857-5.857 15.353 0 21.21l36.534 36.534c.028.028.059.051.087.078 5.857 5.77 15.3 5.745 21.123-.078l36.531-36.53.004-.004c5.857-5.857 5.857-15.353 0-21.21-5.857-5.856-15.353-5.856-21.21 0l-.004.004-10.928 10.928v-69.727c0-8.283-6.715-14.998-14.998-14.998h-85.937c-8.283 0-14.998 6.715-14.998 14.998.001 8.283 6.716 14.998 14.999 14.998z" fill="#2799f0" data-original="#000000"/><circle cx="361.89" cy="361.885" r="30.49" fill="#2799f0" data-original="#000000"/></g></g></svg>
